:FULLY-SPECIFIED
:FORCE-ALL-JOINTS-BE-3DOF
:DEGREES
374
root 6.26323 16.5598 -16.0767 9.05109 -20.3824 -6.83351
lfemur -41.0939 19.9802 -10.3647
ltibia 58.9126 -0 0
lfoot -5.80019 -2.08951 -0.365498
ltoes 17.9586 -0 0
rfemur -21.3359 -4.19987 32.8077
rtibia 39.7899 -0 0
rfoot -23.1898 2.72534 0.502325
rtoes 16.3521 -0 0
lowerback 4.70888 2.21969 3.51549
upperback 2.40562 3.08437 1.08987
thorax -0.0265732 1.56463 -0.975306
lowerneck -7.62702 -1.06013 3.03763
upperneck 0.413001 -1.7485 2.07364
head 1.39529 -0.823607 0.0528112
lclavicle -2.48481e-17 1.13307e-14 0
lhumerus -40.5786 -21.4875 94.6899
lradius 55.2115 -0 0
lwrist 16.7475 0 0
lhand -20.2263 2.87633 -0.00439515
lfingers 7.12502 -0 0
lthumb 6.12486 32.8024 0.02524
rclavicle -2.48481e-17 1.13307e-14 0
rhumerus -40.1271 10.8817 -95.6101
rradius 60.4955 -0 0
rwrist 8.80231 0 0
rhand -20.6883 -24.7446 0.0985712
rfingers 7.12502 -0 0
rthumb 5.76304 -54.934 -0.124764
375
root 6.22412 16.5559 -15.9622 9.18091 -20.7996 -6.91205
lfemur -42.4384 20.04 -11.1555
ltibia 57.5936 -0 0
lfoot -6.36641 -1.156 -0.315235
ltoes 17.2506 -0 0
rfemur -20.8303 -3.349 32.6665
rtibia 39.6101 -0 0
rfoot -23.2382 2.39671 0.426869
rtoes 16.7865 -0 0
lowerback 4.80526 2.29495 3.643
upperback 2.42458 3.19386 1.01287
thorax -0.048927 1.61969 -1.13379
lowerneck -7.58356 -0.968159 3.20431
upperneck 0.307643 -1.63456 1.9955
head 1.35162 -0.769935 0.00851518
lclavicle -2.48481e-17 1.13307e-14 0
lhumerus -40.3671 -21.6471 94.2989
lradius 55.1011 -0 0
lwrist 16.8641 0 0
lhand -20.8428 2.62175 -0.0166074
lfingers 7.12502 -0 0
lthumb 5.52953 32.5681 0.0114248
rclavicle -2.48481e-17 1.13307e-14 0
rhumerus -39.8231 11.5586 -95.4376
rradius 59.7663 -0 0
rwrist 9.16827 0 0
rhand -18.818 -23.4516 0.122445
rfingers 7.12502 -0 0
rthumb 7.55197 -53.5249 -0.0608803
376
root 6.17549 16.5521 -15.8215 9.29744 -21.0691 -6.95405
lfemur -43.6452 20.0798 -11.9177
ltibia 56.2798 -0 0
lfoot -6.8862 -0.188141 -0.252163
ltoes 16.4376 -0 0
rfemur -20.4263 -2.53997 32.4601
rtibia 39.4818 -0 0
rfoot -23.2099 2.02151 0.337998
rtoes 17.1844 -0 0
lowerback 4.88376 2.35618 3.74924
upperback 2.44117 3.28333 0.935198
thorax -0.0642894 1.66463 -1.28059
lowerneck -7.53564 -0.902657 3.35497
upperneck 0.198717 -1.55451 1.93228
head 1.30732 -0.732949 -0.0290229
lclavicle -2.48481e-17 1.13307e-14 0
lhumerus -40.1763 -21.8433 93.96
lradius 55.0032 -0 0
lwrist 16.9826 0 0
lhand -21.3588 2.40406 -0.0238652
lfingers 7.12502 -0 0
lthumb 5.03093 32.3624 0.00066559
rclavicle -2.48481e-17 1.13307e-14 0
rhumerus -39.4782 12.2433 -95.2012
rradius 59.1337 -0 0
rwrist 9.50249 0 0
rhand -16.9152 -22.1681 0.122665
rfingers 7.12502 -0 0
rthumb 9.37093 -52.1091 -0.0174822
377
root 6.1157 16.5485 -15.6504 9.39808 -21.1793 -6.95603
lfemur -44.6945 20.1028 -12.6419
ltibia 54.9832 -0 0
lfoot -7.35183 0.807619 -0.177449
ltoes 15.5202 -0 0
rfemur -20.1349 -1.78252 32.1832
rtibia 39.4092 -0 0
rfoot -23.1003 1.60001 0.236491
rtoes 17.54 -0 0
lowerback 4.9425 2.40206 3.83187
upperback 2.45515 3.35076 0.857478
thorax -0.072026 1.69845 -1.41366
lowerneck -7.48354 -0.865838 3.48723
upperneck 0.0870647 -1.5111 1.88555
head 1.26278 -0.714001 -0.0590295
lclavicle -2.48481e-17 1.13307e-14 0
lhumerus -40.0091 -22.0772 93.6795
lradius 54.9195 -0 0
lwrist 17.1021 0 0
lhand -21.7635 2.22737 -0.0245196
lfingers 7.12502 -0 0
lthumb 4.63944 32.1887 -0.00567518
rclavicle -2.48481e-17 1.13307e-14 0
rhumerus -39.0918 12.9294 -94.8984
rradius 58.6094 -0 0
rwrist 9.80003 0 0
rhand -14.9952 -20.9067 0.100353
rfingers 7.12502 -0 0
rthumb 11.2054 -50.6991 0.00570986
378
root 6.04315 16.5453 -15.4448 9.48059 -21.119 -6.91471
lfemur -45.5664 20.1128 -13.3188
ltibia 53.7156 -0 0
lfoot -7.75561 1.82487 -0.0927117
ltoes 14.4991 -0 0
rfemur -19.9665 -1.08684 31.8304
rtibia 39.3966 -0 0
rfoot -22.9046 1.13238 0.123386
rtoes 17.8475 -0 0
lowerback 4.97959 2.43128 3.88856
upperback 2.46628 3.3941 0.780347
thorax -0.0715024 1.72015 -1.53096
lowerneck -7.42756 -0.859901 3.59873
upperneck -0.0264976 -1.5071 1.85693
head 1.21837 -0.714443 -0.080728
lclavicle -2.48481e-17 1.13307e-14 0
lhumerus -39.8687 -22.3497 93.4635
lradius 54.8516 -0 0
lwrist 17.2216 0 0
lhand -22.0462 2.0958 -0.0170207
lfingers 7.12502 -0 0
lthumb 4.36546 32.0506 -0.00629175
rclavicle -2.48481e-17 1.13307e-14 0
rhumerus -38.663 13.6103 -94.5266
rradius 58.2049 -0 0
rwrist 10.056 0 0
rhand -13.073 -19.6795 0.0581143
rfingers 7.12502 -0 0
rthumb 13.0408 -49.3073 0.0104595
